<?xml version="1.0" encoding="UTF-8"?>
<svg id="Logo_Temp_Vector_Image" data-name="Logo Temp Vector Image" xmlns="http://www.w3.org/2000/svg" width="100" height="40" viewBox="0 0 307.27 177.84">
  <path d="m119.92,20.12c.02-1.19-7.25,1.08-10.51,2.89-21.18,11.67-40.94,25.44-58.99,41.53-7.27,6.48-20.54,19.3-24.21,22.84-.71.69-1.35,1.43-1.92,2.24-.65.93-1.67,2.4-1.91,3.35-.42,1.68,2.36,1.05,4.63.91s20.19-1.53,30.11-3.07c19.51-3.03,38.89-6.96,58.35-10.36,20.03-3.51,40.02-7.34,60.16-10.06,11.81-1.6,23.85-.85,36.24,1.9-2.09-8.54-3.57-17.19-6.38-25.39-2.98-8.71-7.24-16.98-10.82-25.49-.42-1-.43-2.65.03-3.63,2.21-4.72,6.13-6.87,11.28-6.98,4.61-.1,6.89,2.96,8.36,6.58,5.42,13.35,10.49,26.83,12.73,41.17.04.23.1.45.17.79,6.1-2.08,12.13-4.16,18.18-6.16.64-.21,1.53-.2,2.13.08,4.6,2.11,9.29,4.1,13.65,6.63,1.33.78,2.49,3.18,2.44,4.81-.56,19.25,1.79,38.05,9.34,55.86,5.82,13.73,16.59,23.29,28.76,31.39,1.76,1.17,3.57,2.26,5.53,3.5-.46.36-.99.35-1.81.32-3.81,0-6.51.08-11.08.14-9.35-.25-22.04-5.62-29.43-15.27-11.33-14.81-16.12-31.82-17.69-50.01-.42-4.86-.78-9.72-1.17-14.68-4.29-4.64-9.89-5.28-15.99-2,.8,9.46,1.6,18.76,2.37,28.05.32,3.83.97,7.69.67,11.47-.18,2.24-1.93,4.36-2.82,6.21h-15.21v-7.12c-5.09,4.44-9.86,8.93-14.97,12.99-19.1,15.14-37.85,30.75-59.79,41.91-4.28,2.18-7.56,6.32-12.28,10.4-5.94-1.74-13.61-3.98-21.73-6.35.25-2.35-.03-4.7.78-6.58,5.26-12.15,10.45-24.3,12.06-37.62.94-7.72-1.73-14.46-5.53-20.91-.19-.32-.69-.51-1.08-.63-3.31-1.03-6.64-2.04-9.93-3.04-.28-.84-.54-1.62-.84-2.51.35-.21.65-.51,1.01-.6,7.6-2,15.11-4.75,22.84-5.7,6.2-.76,10.72,4.12,14.81,8.38,6.14,6.4,5.58,14.37,5.26,22.46-.37,9.13-3.95,17.02-7.96,24.87-.36.71-.72,1.42-1.08,2.14-.03.06,0,.15.06,1.06,5.45-4.3,10.69-8.11,15.57-12.34,17.95-15.53,35.45-31.52,49.01-51.27,3.85-5.61,2.88-8.3-3.96-8.19-11.07.18-22.19.73-33.17,2.13-18.85,2.41-37.88,4.43-56.33,8.76-20.36,4.78-40,12.56-60.25,17.89-12.53,3.3-25.56,5.24-38.49,6.35-7.96.69-11.07-5.07-7.9-12.56,5.56-13.11,13.68-24.53,24.13-34.23,21.72-20.16,44.66-38.87,69.21-55.44C106.51,5.85,120.08,1.13,134.7.06c7.34-.54,14.69,2.53,15.57,7.7.56,3.29.02,7.43-1.57,10.33-8.54,15.53-17.56,30.79-26.21,45.78-10.67,1.03-20.57,1.98-30.93,2.97-.31-.52-1.12-1.29-1.13-2.07,0-.55,1.08-1.11,1.69-1.65,1.16-1.03,2.46-1.93,3.47-3.09,9.82-11.27,17.44-23.94,23.67-37.48.17-.38.63-1.24.65-2.43Z"/>
</svg>